<svg version="1.1" xmlns="http://www.w3.org/2000/svg" viewBox="0 0 252.16796875 306.671875" width="504.3359375" height="613.34375">
  <!-- svg-source:excalidraw -->
  
  <defs>
    <style>
      @font-face {
        font-family: "Virgil";
        src: url("https://excalidraw.com/Virgil.woff2");
      }
      @font-face {
        font-family: "Cascadia";
        src: url("https://excalidraw.com/Cascadia.woff2");
      }
    </style>
  </defs>
  <g transform="translate(10 10) rotate(0 111.419921875 139.873046875)" stroke="none"><path fill="#ffffff" d="M 1.56,-0.02 Q 1.56,-0.02 1.57,2.08 1.57,4.20 1.78,6.54 1.99,8.88 2.57,11.76 3.14,14.64 3.96,18.00 4.78,21.35 5.67,25.03 6.56,28.70 7.51,32.40 8.45,36.09 9.35,39.70 10.25,43.31 11.15,46.94 12.05,50.58 13.05,54.08 14.05,57.59 15.16,61.01 16.28,64.42 17.61,67.88 18.95,71.34 20.50,74.76 22.04,78.18 23.74,81.61 25.43,85.03 27.25,88.40 29.07,91.77 31.05,94.98 33.03,98.19 35.21,101.26 37.40,104.32 39.69,107.14 41.99,109.95 44.39,112.45 46.80,114.96 49.32,117.17 51.84,119.39 54.64,121.37 57.43,123.35 60.54,125.16 63.64,126.97 66.87,128.50 70.10,130.04 73.42,131.35 76.74,132.66 80.23,133.80 83.72,134.93 87.33,135.89 90.94,136.84 94.60,137.61 98.26,138.39 104.19,139.04 110.13,139.70 114.63,139.97 119.14,140.23 122.49,140.19 125.83,140.16 128.59,139.67 131.35,139.18 133.72,138.24 136.09,137.31 137.82,136.22 139.54,135.13 140.91,133.77 142.28,132.41 143.42,130.76 144.57,129.10 145.36,127.34 146.16,125.59 146.75,123.52 147.34,121.46 147.76,119.18 148.18,116.90 148.41,114.60 148.64,112.30 148.62,109.90 148.60,107.50 148.26,105.29 147.92,103.09 147.21,100.96 146.49,98.82 145.40,96.67 144.31,94.51 143.01,92.61 141.71,90.71 140.11,89.02 138.52,87.33 136.68,85.88 134.84,84.43 132.81,83.23 130.77,82.04 128.51,81.11 126.25,80.19 123.98,79.56 121.70,78.94 119.51,78.59 117.32,78.24 114.96,78.09 112.61,77.94 110.11,77.88 107.61,77.82 105.42,77.79 103.24,77.76 100.97,78.02 98.70,78.29 96.18,78.99 93.65,79.69 91.30,80.73 88.95,81.76 86.66,83.12 84.37,84.48 82.17,86.06 79.98,87.64 78.21,89.25 76.44,90.85 74.97,92.52 73.51,94.19 72.00,96.17 70.49,98.15 69.10,100.36 67.72,102.56 66.63,104.83 65.54,107.09 64.69,109.47 63.85,111.86 63.23,114.35 62.61,116.85 62.25,119.40 61.89,121.96 61.72,124.67 61.55,127.39 61.48,130.26 61.41,133.12 61.38,135.86 61.35,138.60 61.35,141.16 61.35,143.71 61.46,146.22 61.58,148.73 61.81,151.11 62.04,153.50 62.32,155.92 62.60,158.34 62.91,160.79 63.22,163.23 63.58,165.64 63.93,168.04 64.42,170.49 64.91,172.93 65.65,175.41 66.39,177.89 67.36,180.49 68.33,183.09 69.43,185.67 70.54,188.25 71.81,190.68 73.08,193.11 74.52,195.44 75.97,197.77 77.57,200.06 79.18,202.36 80.74,204.34 82.30,206.32 83.97,208.22 85.64,210.13 87.49,212.03 89.34,213.93 91.17,215.54 92.99,217.14 94.85,218.59 96.71,220.03 98.45,221.29 100.20,222.56 102.13,223.87 104.07,225.19 106.37,226.69 108.67,228.19 111.07,229.75 113.48,231.31 115.90,232.87 118.32,234.42 121.01,236.03 123.69,237.63 126.67,239.24 129.65,240.84 132.78,242.34 135.91,243.83 139.27,245.30 142.64,246.78 146.08,248.22 149.52,249.66 153.05,251.06 156.59,252.46 160.11,253.79 163.63,255.12 167.00,256.44 170.36,257.76 173.66,259.16 176.96,260.55 180.02,261.88 183.09,263.20 185.91,264.42 188.72,265.64 191.47,266.74 194.21,267.84 196.81,268.79 199.40,269.75 201.62,270.51 203.84,271.28 205.79,271.88 207.74,272.47 209.54,272.92 211.35,273.36 212.94,273.71 214.52,274.05 215.83,274.34 217.13,274.63 218.90,275.16 220.66,275.70 222.61,277.06 224.56,278.42 224.73,278.74 224.89,279.05 224.95,279.39 225.01,279.74 224.95,280.09 224.89,280.43 224.73,280.74 224.57,281.05 224.31,281.30 224.06,281.54 223.74,281.69 223.42,281.83 223.07,281.87 222.72,281.91 222.38,281.84 222.03,281.76 221.73,281.58 221.43,281.40 221.20,281.13 220.97,280.86 220.84,280.54 220.71,280.21 220.69,279.86 220.68,279.51 220.77,279.17 220.86,278.83 221.06,278.54 221.26,278.25 221.54,278.04 221.82,277.82 222.15,277.71 222.48,277.60 222.83,277.60 223.18,277.60 223.52,277.71 223.85,277.82 224.13,278.03 224.41,278.25 224.61,278.54 224.81,278.83 224.90,279.17 224.99,279.50 224.98,279.86 224.96,280.21 224.83,280.53 224.70,280.86 224.47,281.13 224.24,281.40 223.94,281.58 223.64,281.76 223.30,281.83 222.95,281.91 222.60,281.87 222.26,281.83 221.94,281.69 221.62,281.54 221.36,281.30 221.11,281.06 221.11,281.06 221.11,281.06 219.96,280.30 218.81,279.54 217.46,278.80 216.11,278.06 214.90,277.60 213.69,277.14 212.14,276.64 210.59,276.14 208.76,275.59 206.93,275.04 204.96,274.40 202.98,273.77 200.74,272.99 198.49,272.21 195.87,271.25 193.24,270.28 190.46,269.16 187.68,268.05 184.86,266.83 182.05,265.61 178.99,264.29 175.94,262.97 172.67,261.59 169.40,260.21 166.05,258.89 162.71,257.58 159.16,256.24 155.62,254.90 152.06,253.49 148.50,252.09 145.04,250.64 141.58,249.18 138.18,247.69 134.78,246.20 131.59,244.68 128.40,243.15 125.37,241.52 122.34,239.89 119.62,238.26 116.91,236.63 114.47,235.07 112.04,233.51 109.64,231.95 107.23,230.39 104.91,228.87 102.59,227.36 100.62,226.02 98.66,224.68 96.88,223.39 95.09,222.10 93.17,220.61 91.25,219.11 89.36,217.44 87.46,215.76 85.56,213.81 83.67,211.86 81.95,209.90 80.24,207.95 78.63,205.90 77.03,203.86 75.38,201.51 73.73,199.15 72.24,196.74 70.75,194.33 69.44,191.81 68.12,189.28 67.00,186.65 65.87,184.01 64.87,181.32 63.87,178.63 63.10,176.04 62.33,173.44 61.84,170.94 61.34,168.43 60.98,165.99 60.61,163.56 60.31,161.10 60.00,158.65 59.71,156.20 59.42,153.75 59.19,151.30 58.95,148.85 58.84,146.28 58.72,143.72 58.72,141.14 58.72,138.57 58.75,135.81 58.78,133.06 58.86,130.14 58.93,127.23 59.11,124.40 59.29,121.58 59.67,118.90 60.06,116.22 60.72,113.60 61.37,110.98 62.27,108.46 63.17,105.95 64.33,103.56 65.49,101.16 66.95,98.86 68.40,96.56 69.97,94.51 71.54,92.46 73.11,90.68 74.68,88.90 76.56,87.21 78.45,85.51 80.74,83.86 83.03,82.21 85.46,80.79 87.89,79.36 90.42,78.26 92.95,77.16 95.67,76.42 98.40,75.68 100.83,75.41 103.27,75.13 105.47,75.16 107.68,75.19 110.22,75.26 112.77,75.32 115.26,75.48 117.74,75.65 120.07,76.02 122.40,76.40 124.83,77.08 127.25,77.76 129.68,78.76 132.10,79.77 134.29,81.07 136.48,82.37 138.46,83.95 140.43,85.53 142.16,87.37 143.88,89.22 145.28,91.27 146.67,93.33 147.83,95.66 148.99,97.99 149.77,100.34 150.54,102.69 150.90,105.08 151.25,107.47 151.27,110.01 151.30,112.55 151.06,114.97 150.82,117.39 150.38,119.80 149.94,122.21 149.29,124.47 148.63,126.74 147.70,128.68 146.76,130.62 145.46,132.48 144.15,134.34 142.54,135.85 140.94,137.36 138.99,138.56 137.05,139.75 134.43,140.76 131.81,141.76 128.84,142.27 125.87,142.79 122.42,142.82 118.98,142.85 114.41,142.58 109.84,142.31 103.78,141.63 97.71,140.96 93.99,140.17 90.27,139.38 86.59,138.41 82.91,137.43 79.34,136.27 75.78,135.10 72.37,133.76 68.97,132.41 65.64,130.82 62.32,129.24 59.12,127.37 55.91,125.49 53.01,123.43 50.10,121.37 47.50,119.07 44.90,116.78 42.43,114.19 39.95,111.61 37.60,108.73 35.26,105.85 33.02,102.71 30.79,99.57 28.77,96.30 26.75,93.02 24.91,89.61 23.07,86.20 21.36,82.73 19.64,79.26 18.06,75.78 16.49,72.29 15.12,68.77 13.76,65.25 12.63,61.78 11.50,58.32 10.48,54.77 9.46,51.22 8.56,47.59 7.65,43.96 6.74,40.36 5.84,36.77 4.87,33.06 3.91,29.35 3.00,25.68 2.09,22.02 1.23,18.61 0.37,15.21 -0.25,12.19 -0.88,9.17 -1.15,6.71 -1.42,4.25 -1.49,2.14 -1.56,0.02 -1.54,-0.15 -1.52,-0.34 -1.46,-0.52 -1.39,-0.70 -1.29,-0.85 -1.18,-1.01 -1.05,-1.14 -0.91,-1.26 -0.74,-1.36 -0.58,-1.45 -0.39,-1.49 -0.21,-1.54 -0.02,-1.55 0.15,-1.55 0.34,-1.51 0.52,-1.47 0.69,-1.38 0.86,-1.30 1.00,-1.18 1.15,-1.05 1.26,-0.90 1.37,-0.75 1.44,-0.57 1.51,-0.40 1.53,-0.21 1.56,-0.02 1.56,-0.02 L 1.56,-0.02 Z"></path></g><g transform="translate(214.1015625 240.08203125) rotate(0 -11.3203125 28.294921875)" stroke="none"><path fill="#ffffff" d="M 1.57,-0.24 Q 1.57,-0.24 1.88,1.51 2.18,3.26 2.81,5.39 3.44,7.53 4.62,10.26 5.79,12.98 7.42,16.44 9.05,19.89 10.79,23.30 12.53,26.70 14.11,29.46 15.70,32.23 17.03,34.59 18.36,36.95 19.55,39.11 20.74,41.27 21.74,43.14 22.73,45.01 23.56,46.56 24.40,48.11 25.07,49.22 25.75,50.32 26.63,51.62 27.51,52.92 28.47,53.68 29.43,54.44 29.72,54.71 30.02,54.98 30.18,55.24 30.34,55.50 30.43,55.79 30.53,56.08 30.55,56.38 30.57,56.69 30.51,56.99 30.46,57.29 30.33,57.57 30.21,57.85 30.02,58.09 29.84,58.33 29.60,58.52 29.36,58.71 29.08,58.84 28.80,58.97 28.50,59.02 28.20,59.08 27.90,59.06 27.59,59.04 27.30,58.96 27.01,58.87 26.74,58.71 26.48,58.55 26.26,58.34 26.05,58.12 24.53,58.22 23.01,58.32 20.87,57.84 18.72,57.36 15.59,56.80 12.46,56.23 8.80,55.75 5.13,55.27 1.07,54.94 -2.97,54.62 -7.06,54.41 -11.14,54.20 -15.04,54.03 -18.95,53.86 -22.54,53.68 -26.13,53.51 -29.11,53.36 -32.09,53.21 -34.60,53.02 -37.10,52.84 -39.24,52.59 -41.38,52.35 -43.06,52.22 -44.75,52.09 -45.98,52.04 -47.22,52.00 -49.15,51.73 -51.08,51.45 -51.36,51.35 -51.63,51.24 -51.86,51.05 -52.09,50.86 -52.24,50.60 -52.40,50.35 -52.46,50.06 -52.53,49.77 -52.50,49.48 -52.47,49.19 -52.35,48.92 -52.22,48.65 -52.02,48.43 -51.82,48.21 -51.56,48.07 -51.30,47.93 -51.01,47.88 -50.71,47.83 -50.42,47.88 -50.13,47.92 -49.87,48.06 -49.60,48.20 -49.40,48.41 -49.19,48.63 -49.07,48.89 -48.94,49.16 -48.91,49.46 -48.87,49.75 -48.94,50.04 -49.00,50.33 -49.15,50.58 -49.30,50.84 -49.52,51.03 -49.75,51.22 -50.02,51.34 -50.30,51.45 -50.59,51.47 -50.89,51.48 -51.17,51.41 -51.46,51.33 -51.71,51.16 -51.95,51.00 -52.13,50.77 -52.31,50.53 -52.41,50.25 -52.51,49.97 -52.51,49.67 -52.51,49.38 -52.42,49.10 -52.32,48.82 -52.15,48.58 -51.97,48.34 -51.73,48.17 -51.48,48.01 -51.20,47.93 -50.91,47.84 -50.62,47.86 -50.32,47.87 -50.32,47.87 -50.32,47.87 -48.56,48.20 -46.79,48.53 -45.58,48.79 -44.37,49.04 -42.72,49.33 -41.08,49.61 -39.00,49.83 -36.92,50.05 -34.44,50.20 -31.97,50.35 -28.99,50.45 -26.01,50.56 -22.43,50.67 -18.85,50.79 -14.93,50.88 -11.02,50.96 -6.89,51.06 -2.76,51.16 1.37,51.34 5.52,51.51 9.27,51.80 13.03,52.08 16.20,52.38 19.37,52.67 21.58,52.79 23.78,52.92 25.86,53.32 27.94,53.72 28.98,54.35 30.02,54.98 30.18,55.24 30.34,55.50 30.43,55.79 30.53,56.08 30.55,56.38 30.57,56.69 30.51,56.99 30.46,57.29 30.33,57.57 30.21,57.85 30.02,58.09 29.84,58.33 29.60,58.52 29.36,58.71 29.08,58.84 28.80,58.97 28.50,59.02 28.20,59.08 27.90,59.06 27.59,59.04 27.30,58.96 27.01,58.87 26.74,58.71 26.48,58.55 26.26,58.34 26.05,58.12 25.65,57.65 25.25,57.18 24.55,56.01 23.85,54.84 23.27,53.35 22.69,51.86 22.19,50.64 21.69,49.41 21.02,47.85 20.35,46.28 19.37,44.43 18.38,42.59 17.18,40.44 15.98,38.30 14.64,35.96 13.30,33.62 11.66,30.81 10.02,28.00 8.23,24.57 6.44,21.15 4.74,17.67 3.05,14.20 1.75,11.34 0.44,8.48 -0.33,6.12 -1.11,3.77 -1.34,2.00 -1.57,0.24 -1.58,0.04 -1.58,-0.14 -1.54,-0.33 -1.50,-0.51 -1.42,-0.69 -1.33,-0.86 -1.21,-1.01 -1.09,-1.15 -0.93,-1.27 -0.78,-1.38 -0.60,-1.46 -0.42,-1.53 -0.23,-1.56 -0.04,-1.59 0.14,-1.57 0.33,-1.55 0.51,-1.49 0.69,-1.43 0.85,-1.33 1.01,-1.22 1.15,-1.08 1.28,-0.94 1.37,-0.77 1.47,-0.61 1.52,-0.42 1.57,-0.24 1.57,-0.24 L 1.57,-0.24 Z"></path></g></svg>